<?xml version="1.0" encoding="UTF-8"?>
<!-- Do not edit this file with editors other than draw.io -->
<!DOCTYPE svg PUBLIC "-//W3C//DTD SVG 1.1//EN" "http://www.w3.org/Graphics/SVG/1.1/DTD/svg11.dtd">
<svg xmlns="http://www.w3.org/2000/svg" style="background: #ffffff; background-color: light-dark(#ffffff, var(--ge-dark-color, #121212)); color-scheme: light dark;" xmlns:xlink="http://www.w3.org/1999/xlink" version="1.1" width="32px" height="32px" viewBox="-0.5 -0.5 32 32" content="&lt;mxfile host=&quot;app.diagrams.net&quot; agent=&quot;Mozilla/5.0 (Windows NT 10.0; Win64; x64) AppleWebKit/537.36 (KHTML, like Gecko) Chrome/138.0.0.0 Safari/537.36&quot; version=&quot;28.0.7&quot; scale=&quot;1&quot; border=&quot;0&quot;&gt;&#10;  &lt;diagram name=&quot;Page-1&quot; id=&quot;4_ahnpt3Yl1H-iiJzrHo&quot;&gt;&#10;    &lt;mxGraphModel dx=&quot;2066&quot; dy=&quot;1103&quot; grid=&quot;1&quot; gridSize=&quot;10&quot; guides=&quot;1&quot; tooltips=&quot;1&quot; connect=&quot;1&quot; arrows=&quot;1&quot; fold=&quot;1&quot; page=&quot;1&quot; pageScale=&quot;1&quot; pageWidth=&quot;1169&quot; pageHeight=&quot;827&quot; math=&quot;0&quot; shadow=&quot;0&quot;&gt;&#10;      &lt;root&gt;&#10;        &lt;mxCell id=&quot;0&quot; /&gt;&#10;        &lt;mxCell id=&quot;1&quot; parent=&quot;0&quot; /&gt;&#10;        &lt;mxCell id=&quot;O0brRuTuqSzEBRarWFZ3-1&quot; value=&quot;&quot; style=&quot;shape=mxgraph.sap.icon;labelPosition=right;verticalLabelPosition=middle;align=left;verticalAlign=middle;strokeWidth=1;strokeColor=none;fillColor=default;gradientColor=#FCFCFC;gradientDirection=west;aspect=fixed;SAPIcon=SAP_AI_Core;fontStyle=1&quot; vertex=&quot;1&quot; parent=&quot;1&quot;&gt;&#10;          &lt;mxGeometry x=&quot;460&quot; y=&quot;310&quot; width=&quot;32&quot; height=&quot;32&quot; as=&quot;geometry&quot; /&gt;&#10;        &lt;/mxCell&gt;&#10;      &lt;/root&gt;&#10;    &lt;/mxGraphModel&gt;&#10;  &lt;/diagram&gt;&#10;&lt;/mxfile&gt;&#10;"><defs><linearGradient x1="100%" y1="0%" x2="0%" y2="0%" id="drawio-svg-xan_b-KPk7o7gSoukgEn-gradient-light-dark_fcfcfc_141414_-1-light-dark_ffffff_var_--ge-dark-color_121212_-1-e-0"><stop offset="0%" stop-color="#ffffff" stop-opacity="1" style="stop-color: light-dark(#ffffff, var(--ge-dark-color, #121212)); stop-opacity: 1;"/><stop offset="100%" stop-color="#FCFCFC" stop-opacity="1" style="stop-color: light-dark(rgb(252, 252, 252), rgb(20, 20, 20)); stop-opacity: 1;"/></linearGradient></defs><rect fill="#ffffff" width="100%" height="100%" x="0" y="0" style="fill: light-dark(#ffffff, var(--ge-dark-color, #121212));"/><g><g data-cell-id="0"><g data-cell-id="1"><g data-cell-id="O0brRuTuqSzEBRarWFZ3-1"><g><ellipse cx="16" cy="16" rx="16" ry="16" fill="url(#drawio-svg-xan_b-KPk7o7gSoukgEn-gradient-light-dark_fcfcfc_141414_-1-light-dark_ffffff_var_--ge-dark-color_121212_-1-e-0)" stroke="none" pointer-events="all" style="fill: url(&quot;#drawio-svg-xan_b-KPk7o7gSoukgEn-gradient-light-dark_fcfcfc_141414_-1-light-dark_ffffff_var_--ge-dark-color_121212_-1-e-0&quot;);"/><g><svg viewBox="-0.5 -0.5 18.023 17.941" height="19.2" width="19.2" xmlns="http://www.w3.org/2000/svg" x="6.4" y="6.4" style="font-family: initial;">&#xa;	<defs>&#xa;		<linearGradient gradientUnits="userSpaceOnUse" y2="7.494" x2="7.506" y1=".958" x1=".544" id="A">&#xa;			<stop stop-color="#0e9afe" offset="0"/>&#xa;			<stop stop-color="#1353ec" offset="1"/>&#xa;		</linearGradient>&#xa;		<linearGradient gradientUnits="userSpaceOnUse" y2="15.809" x2="16.077" y1="7.896" x1="9.835" id="B">&#xa;			<stop stop-color="#1246f8" offset="0"/>&#xa;			<stop stop-color="#06238d" offset="1"/>&#xa;		</linearGradient>&#xa;	</defs>&#xa;	<path fill="url(#A)" d="M1.852-.5A2.41 2.41 0 0 0-.5 1.914v9.654a2.41 2.41 0 0 0 2.414 2.412H6a7.056 7.056 0 0 1-.252-1.83 7.056 7.056 0 0 1 .037-.527H2.674a.85.85 0 1 1 0-1.701h3.449a7.056 7.056 0 0 1 .275-.727H2.674a.85.85 0 1 1 0-1.701h4.832a7.056 7.056 0 0 1 3.268-2.1v-3.48A2.41 2.41 0 0 0 8.359-.5H1.914c-.021 0-.042-.001-.062 0zm5.684 2.342a.866.866 0 1 1 0 1.732.866.866 0 1 1 0-1.732z"/>&#xa;	<path fill="url(#B)" d="M12.711 10.656a.4.4 0 1 0 0 .801.61.61 0 1 1 0 1.23.61.61 0 0 1-.615-.615.4.4 0 0 0-.4-.4.4.4 0 0 0-.398.4 1.42 1.42 0 0 0 1.414 1.414 1.42 1.42 0 0 0 1.416-1.414c0-.777-.639-1.416-1.416-1.416zm.043-1.875A3.33 3.33 0 0 0 9.436 12.1a3.33 3.33 0 0 0 3.318 3.318.6.6 0 0 0 .6-.6.6.6 0 0 0-.6-.6 2.11 2.11 0 0 1-2.119-2.119 2.11 2.11 0 0 1 2.119-2.119 2.11 2.11 0 0 1 2.119 2.119.6.6 0 0 0 .6.6.6.6 0 0 0 .6-.6 3.33 3.33 0 0 0-3.318-3.318zm4.047 5.117a.6.6 0 0 0-.381.26c-.605.924-1.196 1.424-2.268 1.895-.38.142-1.133.251-1.947.131-.82-.121-1.705-.453-2.451-1.123a.6.6 0 0 0-.848.045.6.6 0 0 0 .047.848c.95.853 2.066 1.269 3.078 1.418s1.913.05 2.561-.195l.014-.006.014-.006c1.242-.543 2.098-1.269 2.805-2.348a.6.6 0 0 0-.623-.918zm-3.334-7.033c-1.011-.157-1.913-.067-2.564.18l-.016.006-.014.006c-1.82.795-3.504 2.456-3.512 5.035a.6.6 0 1 0 1.201.004c.006-2.067 1.252-3.257 2.775-3.928.376-.14 1.129-.244 1.945-.117s1.707.467 2.455 1.139a.6.6 0 1 0 .803-.893c-.949-.852-2.063-1.275-3.074-1.432z"/>&#xa;</svg></g></g></g></g></g></g></svg>